<svg xmlns="http://www.w3.org/2000/svg" xmlns:xlink="http://www.w3.org/1999/xlink" version="1.1" id="Layer_1" x="0px" y="0px" viewBox="0 0 3840 2160" style="enable-background:new 0 0 3840 2160;" xml:space="preserve">
<style type="text/css">
	.st0{opacity:0.31;fill:#7C89A1;enable-background:#fff;}
	.st1{fill:none;stroke:#7C89A1;stroke-width:3;stroke-linecap:round;stroke-linejoin:round;stroke-miterlimit:10;}
</style>
<g id="Layer_5">
	<polygon class="st0" points="1337.2,413.2 1339.3,493.7 1405.2,476.6 1405.2,396.6  "/>
	<polygon class="st0" points="1045.3,475.5 1049.8,563.1 1129.7,544.7 1123.8,460.2  "/>
	<polygon class="st0" points="698.6,550.8 711.8,644.5 803.4,622.6 791.4,529.3  "/>
	<polygon class="st0" points="658.4,298.8 671.6,392.5 763.3,370.6 751.2,277.3  "/>
	<polygon class="st0" points="1027.1,780 1033.6,855.4 1077.5,883.1 1072.3,806.1  "/>
	<polygon class="st0" points="711.8,874.3 723.2,953.9 762.2,986.1 751.6,904.2  "/>
	<polygon class="st0" points="1557.7,489 1556.4,579.1 1625.9,559.4 1625.7,472.3  "/>
	<polygon class="st0" points="1825.8,586.2 1820.3,681.6 1891.3,658.7 1898.1,563  "/>
	<polygon class="st0" points="2396.4,1271.9 2394.2,1351 2472.6,1397.4 2475.1,1313.5  "/>
	<polygon class="st0" points="2398.4,921.9 2393.9,1022.4 2479.2,1065.2 2482.3,961.4  "/>
	<polygon class="st0" points="2432.2,720 2432.5,808.5 2501.2,836.7 2503.1,749.1  "/>
	<polygon class="st0" points="2653.2,817.6 2653.5,906.1 2722.2,934.4 2724.1,846.7  "/>
	<polygon class="st0" points="3029.7,968.6 3022.7,1062.4 3081.4,1025.1 3088.5,935.5  "/>
	<polygon class="st0" points="3268,841.7 3258.9,926.9 3307.4,897.2 3316.9,811  "/>
	<polygon class="st0" points="3256.3,1132.7 3248.8,1209.7 3295.7,1174.9 3303.7,1098.8  "/>
	<polygon class="st0" points="3244,1404.3 3236.5,1481.2 3283.5,1446.5 3291.4,1370.3  "/>
	<polygon class="st0" points="3532.6,1553.8 3525.1,1630.8 3572.1,1596.1 3580,1519.9  "/>
	<polygon class="st0" points="3572.3,1236.4 3564.6,1313.3 3611.6,1278.6 3619.5,1202.4  "/>
	<polygon class="st0" points="3611.1,959 3596.7,1051.7 3640.2,1016.6 3655.6,927.2  "/>
	<polygon class="st0" points="2763.9,1124.8 2759.8,1227.7 2833.6,1182 2836.6,1082.4  "/>
	<polygon class="st0" points="2754.4,1501.1 2750.2,1591.7 2818.5,1538.7 2821.1,1452  "/>
	<polygon class="st0" points="2750.7,1718.6 2746.6,1809.3 2814.9,1756.3 2817.5,1669.6  "/>
	<polygon class="st0" points="2998.7,1536.7 2993.2,1619.8 3049.8,1576.8 3056,1495.6  "/>
	<polygon class="st0" points="3002.2,1319 2996.9,1402.3 3053.7,1358.9 3058.8,1278.8  "/>
	<polygon class="st0" points="2656,446.1 2654.2,545.7 2728.9,570 2731.8,469.1  "/>
	<polygon class="st0" points="2899,371 2896,459.9 2966.7,481.3 2971.6,391.2  "/>
	<polygon class="st0" points="2973,541.2 2964.1,645.9 3051.3,674.5 3060.2,565.2  "/>
	<polygon class="st0" points="3200.7,448.6 3192.7,544.3 3277.8,568.3 3287.2,469.8  "/>
	<polygon class="st0" points="3345.4,651.1 3331.8,765 3437.6,797.5 3452.9,682  "/>
	<polygon class="st0" points="3558.8,538.7 3542.7,642.7 3641.2,670.3 3659.2,565.6  "/>
	<polygon class="st0" points="1803.9,950.5 1799.2,1033.1 1865.3,1004 1871.6,920.2  "/>
	<polygon class="st0" points="1552.6,825.7 1552.6,904.4 1616.8,880.5 1619.5,801.6  "/>
	<polygon class="st0" points="1510,1071.6 1510,1163.7 1589.8,1128.8 1589.8,1039.1  "/>
	<polygon class="st0" points="1507.3,1856.1 1506.3,1936.4 1580,1895.1 1581.2,1818.2  "/>
	<polygon class="st0" points="1731.6,1405.7 1792.7,1449.3 1866.6,1413.9 1804.1,1371.3  "/>
	<polygon class="st0" points="1508.9,1607.7 1508.9,1687.8 1583.1,1646.1 1583.7,1569.4  "/>
	<polygon class="st0" points="1283.7,1438.3 1286.5,1512.7 1357.2,1479.6 1355,1406  "/>
	<polygon class="st0" points="1281.4,1686.6 1284.1,1760.9 1354.8,1727.9 1352.6,1654.3  "/>
	<polygon class="st0" points="1111.5,1318.3 1115,1386.5 1183.9,1360.1 1178.2,1292.5  "/>
	<polygon class="st0" points="851.9,1423.6 855.4,1491.8 924.2,1465.4 918.5,1397.8  "/>
	<polygon class="st0" points="822.3,1179.8 825.9,1248 894.6,1221.6 889,1154  "/>
	<polygon class="st0" points="1098.6,1100.6 1102.1,1168.2 1170.9,1141.8 1167,1074.1  "/>
	<polygon class="st0" points="440.1,987.7 451.6,1071.3 537.3,1043.4 526.1,962.2  "/>
	<polygon class="st0" points="300.9,601.8 341.9,639.8 465.5,608.4 420.3,572  "/>
</g>
<g id="Layer_3_1_">
	<polygon class="st1" points="1496.3,467.3 1496.3,555.3 1556.4,579.1 1556.4,489  "/>
	<polygon class="st1" points="1496.3,467.3 1566.1,450.3 1627,470.6 1556.4,489  "/>
	<polyline class="st1" points="1627,470.6 1625.9,559.4 1556.4,579.1  "/>
	<polygon class="st1" points="1287,393.5 1289.3,474 1339.3,493.7 1337.2,413.2  "/>
	<polygon class="st1" points="1287,393.5 1353.4,379.3 1405.2,396.6 1337.2,413.2  "/>
	<polyline class="st1" points="1405.2,396.6 1405.2,476.6 1339.3,493.7  "/>
	<polygon class="st1" points="1496,797.7 1496,875.2 1552.6,904.4 1552.6,825.7  "/>
	<polygon class="st1" points="1496,797.7 1561,774.6 1619.5,801.6 1552.6,825.7  "/>
	<polyline class="st1" points="1619.5,801.6 1616.8,880.5 1552.6,904.4  "/>
	<polygon class="st1" points="1443.1,1033.1 1443.1,1121.9 1510,1164.7 1510,1072  "/>
	<polygon class="st1" points="1443.1,1033.1 1522.2,1000.6 1589.8,1039.1 1510,1072  "/>
	<polyline class="st1" points="1589.8,1039.1 1589.8,1128.8 1510,1164.7  "/>
	<polygon class="st1" points="1734.1,914.9 1730.8,999.3 1798.4,1034.6 1803.2,949.5  "/>
	<polygon class="st1" points="1734.1,914.9 1801.1,887.7 1871.6,920.2 1803.2,949.5  "/>
	<polyline class="st1" points="1871.6,920.2 1865.2,1005.2 1798.4,1034.6  "/>
	<polygon class="st1" points="1447.3,1561.6 1447.3,1639 1508.9,1688 1508.9,1607.7  "/>
	<polygon class="st1" points="1447.3,1561.6 1521.2,1524.5 1583.7,1569.4 1508.9,1607.7  "/>
	<polyline class="st1" points="1583.7,1569.4 1582.7,1646.7 1508.9,1688  "/>
	<polygon class="st1" points="1751.6,558 1747.4,654.2 1820.3,682.8 1825.8,585  "/>
	<polygon class="st1" points="1751.6,558 1823.7,537 1898.1,563 1825.8,585  "/>
	<polyline class="st1" points="1898.1,563 1891.3,658.7 1820.3,682.8  "/>
	<polygon class="st1" points="996.7,453.4 1002.3,540.5 1049.8,563.1 1043.9,475  "/>
	<polygon class="st1" points="996.7,453.4 1074.8,436.3 1123.8,459.1 1043.9,475  "/>
	<polyline class="st1" points="1123.8,459.1 1128.8,544.6 1049.8,563.1  "/>
	<polygon class="st1" points="1027.1,779 1033.6,856.2 1077.5,883.9 1072.3,807  "/>
	<polygon class="st1" points="1027.1,779 1100.5,757.4 1145.8,784 1072.3,807  "/>
	<polyline class="st1" points="1145.8,784 1151.1,860.4 1077.5,883.9  "/>
	<polygon class="st1" points="655.9,525.4 669.7,618.3 711.8,644.5 698,550.8  "/>
	<polygon class="st1" points="655.9,525.4 748.4,505.4 791.4,529.3 698,550.8  "/>
	<polyline class="st1" points="791.4,529.3 803.4,622.6 711.8,644.5  "/>
	<polygon class="st1" points="299.5,601.8 322.8,714 365.3,753.7 341.9,639.8  "/>
	<polygon class="st1" points="299.5,601.8 420.3,572 465.5,608.4 341.9,639.8  "/>
	<polyline class="st1" points="465.5,608.4 486.2,718.7 365.3,753.7  "/>
	<polygon class="st1" points="710.9,872.7 723.2,953.9 763.1,987 751.6,903.3  "/>
	<polygon class="st1" points="710.9,872.7 796.1,847.1 837.7,877.9 751.6,903.3  "/>
	<polyline class="st1" points="837.7,877.9 848.8,959.1 763.1,987  "/>
	<polygon class="st1" points="1054.4,1067.9 1059.7,1136.1 1102.1,1168.2 1097.3,1100.6  "/>
	<polygon class="st1" points="1054.4,1067.9 1122.9,1041.9 1166,1073.9 1097.3,1100.6  "/>
	<polyline class="st1" points="1166,1073.9 1170.9,1141.8 1102.1,1168.2  "/>
	<polygon class="st1" points="1231.9,1400.3 1235.4,1472.8 1286.5,1512.7 1283.7,1438.3  "/>
	<polygon class="st1" points="1231.9,1400.3 1303.3,1369.3 1355,1406 1283.7,1438.3  "/>
	<polyline class="st1" points="1355,1406 1357.2,1479.6 1286.5,1512.7  "/>
	<line class="st1" x1="1560.7" y1="579.1" x2="1557.7" y2="800.2"/>
	<line class="st1" x1="1804.7" y1="677.2" x2="1801.7" y2="917.5"/>
	<line class="st1" x1="795.3" y1="559.3" x2="1023.3" y2="508.3"/>
	<line class="st1" x1="1066" y1="559.3" x2="1086.5" y2="784"/>
	<line class="st1" x1="738.9" y1="638.5" x2="774.3" y2="877.9"/>
	<line class="st1" x1="471.3" y1="639.9" x2="683.4" y2="585"/>
	<line class="st1" x1="135.6" y1="730.6" x2="332.4" y2="679.3"/>
	<polygon class="st0" points="-35.4,690.1 5.6,728.1 129.2,696.7 84,660.3  "/>
	<polygon class="st1" points="-36.7,690.1 -13.5,802.3 29.1,841.9 5.6,728.1  "/>
	<polygon class="st1" points="-36.7,690.1 84,660.3 129.2,696.7 5.6,728.1  "/>
	<polyline class="st1" points="129.2,696.7 149.9,807 29.1,841.9  "/>
	<line class="st1" x1="473.6" y1="639.8" x2="683.4" y2="585"/>
	<line class="st1" x1="-123.9" y1="798.9" x2="-3.8" y2="767.6"/>
	<line class="st1" x1="840.3" y1="897.1" x2="1054.4" y2="831.5"/>
	<line class="st1" x1="530" y1="990.1" x2="737" y2="929.8"/>
	<polygon class="st1" points="399.4,957 411.7,1038.2 451.6,1071.3 440.1,987.7  "/>
	<polygon class="st1" points="399.4,957 484.6,931.4 526.1,962.2 440.1,987.7  "/>
	<polyline class="st1" points="526.1,962.2 537.3,1043.4 451.6,1071.3  "/>
	<polygon class="st0" points="148.5,1082.6 159.9,1166.2 245.7,1138.4 234.5,1057.1  "/>
	<line class="st1" x1="236.4" y1="1071.3" x2="425.5" y2="1014.1"/>
	<polygon class="st1" points="107.7,1051.9 120,1133.2 159.9,1166.2 148.5,1082.6  "/>
	<polygon class="st1" points="107.7,1051.9 193,1026.3 234.5,1057.1 148.5,1082.6  "/>
	<polyline class="st1" points="234.5,1057.1 245.7,1138.4 159.9,1166.2  "/>
	<polygon class="st0" points="559.4,1272.5 570.8,1356.1 656.6,1328.2 645.4,1247  "/>
	<polygon class="st1" points="518.6,1241.8 530.9,1323 570.8,1356.1 559.4,1272.5  "/>
	<polygon class="st1" points="518.6,1241.8 603.9,1216.2 645.4,1247 559.4,1272.5  "/>
	<polyline class="st1" points="645.4,1247 656.6,1328.2 570.8,1356.1  "/>
	<line class="st1" x1="863.5" y1="1394.8" x2="851.2" y2="1237.7"/>
	<line class="st1" x1="625.3" y1="1497.2" x2="609.1" y2="1344.2"/>
	<line class="st1" x1="1094.5" y1="878.5" x2="1110.2" y2="1073.9"/>
	<polygon class="st1" points="1067.4,1286.1 1072.7,1354.4 1115,1386.5 1110.2,1318.9  "/>
	<polygon class="st1" points="1067.4,1286.1 1135.9,1260.3 1179,1292.3 1110.2,1318.9  "/>
	<polyline class="st1" points="1179,1292.3 1183.9,1360.1 1115,1386.5  "/>
	<line class="st1" x1="1117.7" y1="1162.2" x2="1123.2" y2="1292.3"/>
	<polygon class="st1" points="778.3,1147.2 783.6,1215.3 825.9,1247.5 821.1,1179.8  "/>
	<polygon class="st1" points="778.3,1147.2 846.8,1121.3 889.8,1153.3 821.1,1179.8  "/>
	<polyline class="st1" points="889.8,1153.3 894.6,1221.1 825.9,1247.5  "/>
	<path class="st1" d="M834,1153.3"/>
	<path class="st1" d="M1094.5,878.5"/>
	<path class="st1" d="M1362.6,790.8"/>
	<path class="st1" d="M1123.2,1292.3"/>
	<path class="st1" d="M841.6,1241.5"/>
	<polygon class="st0" points="213.7,1364.5 217.3,1432.7 286,1406.3 280.3,1338.7  "/>
	<line class="st1" x1="197.1" y1="1154.1" x2="225.4" y2="1335.2"/>
	<line class="st1" x1="396.7" y1="1675.9" x2="410.8" y2="1858.2"/>
	<polygon class="st1" points="169.6,1331.8 174.9,1400 217.3,1432.2 212.5,1364.5  "/>
	<polygon class="st1" points="169.6,1331.8 238.2,1306 281.2,1338 212.5,1364.5  "/>
	<polyline class="st1" points="281.2,1338 286,1405.8 217.3,1432.2  "/>
	<path class="st1" d="M225.4,1338"/>
	<path class="st1" d="M232.9,1426.2"/>
	<polygon class="st1" points="807.8,1391.4 813.1,1459.7 855.4,1491.8 850.7,1424.2  "/>
	<polygon class="st1" points="807.8,1391.4 876.2,1365.5 919.3,1397.5 850.7,1424.2  "/>
	<polyline class="st1" points="919.3,1397.5 924.2,1465.4 855.4,1491.8  "/>
	<line class="st1" x1="1091.2" y1="1336.3" x2="919.8" y2="1403.9"/>
	<line class="st1" x1="831.6" y1="1441.6" x2="679.1" y2="1502.8"/>
	<line class="st1" x1="587.6" y1="1545.2" x2="429.7" y2="1601"/>
	<polygon class="st0" points="611.2,1523.6 614.8,1591.7 683.5,1565.4 677.9,1497.8  "/>
	<polygon class="st1" points="567.2,1491.4 572.4,1559.6 614.8,1591.7 610.1,1524.1  "/>
	<polygon class="st1" points="567.2,1491.4 635.6,1465.5 678.7,1497.5 610.1,1524.1  "/>
	<polyline class="st1" points="678.7,1497.5 683.5,1565.4 614.8,1591.7  "/>
	<polygon class="st0" points="360.5,1620.4 364.1,1688.5 432.8,1662.2 427.2,1594.6  "/>
	<polygon class="st1" points="316.5,1588.2 321.7,1656.4 364.1,1688.5 359.4,1621  "/>
	<polygon class="st1" points="316.5,1588.2 384.9,1562.3 428,1594.3 359.4,1621  "/>
	<polyline class="st1" points="428,1594.3 432.8,1662.2 364.1,1688.5  "/>
	<line class="st1" x1="340.3" y1="1634.4" x2="168" y2="1696.6"/>
	<polygon class="st0" points="98.8,1716 102.4,1784.1 171.1,1757.8 165.4,1690.2  "/>
	<polygon class="st1" points="54.8,1683.8 60,1752 102.4,1784.1 97.7,1716.6  "/>
	<polygon class="st1" points="54.8,1683.8 123.2,1657.9 166.3,1689.9 97.7,1716.6  "/>
	<polyline class="st1" points="166.3,1689.9 171.1,1757.8 102.4,1784.1  "/>
	<line class="st1" x1="1252.9" y1="1700.2" x2="1110.9" y2="1766.2"/>
	<polygon class="st0" points="1042.8,1765.7 1046.3,1833.8 1115,1807.5 1109.4,1739.9  "/>
	<polygon class="st1" points="998.7,1733.5 1004,1801.7 1046.3,1833.8 1041.6,1766.2  "/>
	<polygon class="st1" points="998.7,1733.5 1067.1,1707.6 1110.2,1739.6 1041.6,1766.2  "/>
	<polyline class="st1" points="1110.2,1739.6 1115,1807.5 1046.3,1833.8  "/>
	<line class="st1" x1="1031.6" y1="1721" x2="943.6" y2="1646"/>
	<polygon class="st0" points="905.7,1624.9 909.3,1693 978,1666.7 972.3,1599.1  "/>
	<polygon class="st1" points="861.6,1592.7 866.9,1660.9 909.3,1693 904.6,1625.4  "/>
	<polygon class="st1" points="861.6,1592.7 930.1,1566.8 973.2,1598.8 904.6,1625.4  "/>
	<polyline class="st1" points="973.2,1598.8 978,1666.7 909.3,1693  "/>
	<polygon class="st1" points="615.7,273.4 629.4,366.3 671.5,392.5 657.8,298.7  "/>
	<polygon class="st1" points="615.7,273.4 707.6,255 751.1,277.3 657.8,298.7  "/>
	<polyline class="st1" points="751.1,277.3 763.1,370.5 671.5,392.5  "/>
	<line class="st1" x1="698.6" y1="386.5" x2="720.5" y2="529.3"/>
	<line class="st1" x1="1589.8" y1="1048.8" x2="1767" y2="974.8"/>
	<line class="st1" x1="1733.7" y1="927.3" x2="1586.1" y2="853"/>
	<polygon class="st0" points="1347.4,711.4 1347.4,790.1 1411.5,766.2 1414.2,687.3  "/>
	<polygon class="st1" points="1290.7,683.3 1290.7,760.9 1347.4,790.1 1347.4,711.4  "/>
	<polygon class="st1" points="1290.7,683.3 1355.7,660.3 1414.2,687.3 1347.4,711.4  "/>
	<polyline class="st1" points="1414.2,687.3 1411.5,766.2 1347.4,790.1  "/>
	<line class="st1" x1="1496" y1="797.7" x2="1380.8" y2="738.7"/>
	<polygon class="st0" points="1316.8,917.8 1316.8,996.5 1381,972.6 1383.6,893.7  "/>
	<polygon class="st1" points="1260.1,889.7 1260.1,967.3 1316.8,996.5 1316.8,917.8  "/>
	<polygon class="st1" points="1260.1,889.7 1325.1,866.7 1383.6,893.7 1316.8,917.8  "/>
	<polyline class="st1" points="1383.6,893.7 1381,972.6 1316.8,996.5  "/>
	<line class="st1" x1="1496.3" y1="490.5" x2="1372.3" y2="445.1"/>
	<line class="st1" x1="1750.6" y1="582.4" x2="1591.7" y2="524.8"/>
	<line class="st1" x1="2036.3" y1="686.5" x2="1856" y2="619"/>
	<polygon class="st0" points="2111.6,687.7 2106.2,783.1 2177.1,760.2 2183.9,664.5  "/>
	<polygon class="st1" points="2037.5,659.5 2033.2,755.7 2106.2,784.3 2111.6,686.5  "/>
	<polygon class="st1" points="2037.5,659.5 2109.6,638.5 2183.9,664.5 2111.6,686.5  "/>
	<polyline class="st1" points="2183.9,664.5 2177.1,760.2 2106.2,784.3  "/>
	<line class="st1" x1="2064" y1="1098.8" x2="1835" y2="977.4"/>
	<path class="st1" d="M1835,977.4"/>
	<path class="st1" d="M2096.2,1138.6"/>
	<line class="st1" x1="1453.3" y1="1558.6" x2="1320.6" y2="1459.3"/>
	<line class="st1" x1="1568.6" y1="1558.6" x2="1756.6" y2="1462.1"/>
	<line class="st1" x1="1515.5" y1="1162.2" x2="1515.5" y2="1295.6"/>
	<polygon class="st0" points="1796.4,1189.9 1796.4,1282.1 1876.3,1247.2 1876.3,1157.5  "/>
	<polygon class="st1" points="1729.5,1151.4 1729.5,1240.3 1796.4,1283 1796.4,1190.3  "/>
	<polygon class="st1" points="1729.5,1151.4 1808.7,1119 1876.3,1157.5 1796.4,1190.3  "/>
	<polyline class="st1" points="1876.3,1157.5 1876.3,1247.2 1796.4,1283  "/>
	<polygon class="st1" points="1444.7,1810 1444.7,1887.3 1506.3,1936.4 1506.3,1856.1  "/>
	<polygon class="st1" points="1444.7,1810 1518.7,1772.9 1581.2,1817.7 1506.3,1856.1  "/>
	<polyline class="st1" points="1581.2,1817.7 1580,1895.1 1506.3,1936.4  "/>
	<polygon class="st1" points="1229.3,1648.5 1232.9,1721.1 1283.8,1760.9 1281.1,1686.7  "/>
	<polygon class="st1" points="1229.3,1648.5 1300.8,1617.7 1352.4,1654.4 1281.1,1686.7  "/>
	<polyline class="st1" points="1352.4,1654.4 1354.7,1727.9 1283.8,1760.9  "/>
	<line class="st1" x1="1450.7" y1="1806.9" x2="1318.1" y2="1707.6"/>
	<line class="st1" x1="1512.9" y1="1685.8" x2="1512.9" y2="1813"/>
	<polygon class="st0" points="406,1888.1 405.2,1956.1 467.7,1921.1 468.6,1856.1  "/>
	<polygon class="st1" points="353,1849.1 353,1914.6 405.2,1956.1 405.2,1888.1  "/>
	<polygon class="st1" points="353,1849.1 415.7,1817.6 468.6,1855.6 405.2,1888.1  "/>
	<polyline class="st1" points="468.6,1855.6 467.7,1921.1 405.2,1956.1  "/>
	<polygon class="st0" points="1506.3,1341.7 1506.3,1421.8 1580.5,1380.1 1581.1,1303.4  "/>
	<polygon class="st1" points="1444.7,1295.6 1444.7,1373 1506.3,1422 1506.3,1341.7  "/>
	<polygon class="st1" points="1444.7,1295.6 1518.6,1258.5 1581.1,1303.4 1506.3,1341.7  "/>
	<polyline class="st1" points="1581.1,1303.4 1580.1,1380.7 1506.3,1422  "/>
	<polygon class="st1" points="1730.2,1406 1730.2,1478.2 1791.8,1524.1 1791.8,1449.1  "/>
	<polygon class="st1" points="1730.2,1406 1804.1,1371.3 1866.6,1413.2 1791.8,1449.1  "/>
	<polyline class="st1" points="1866.6,1413.2 1865.6,1485.5 1791.8,1524.1  "/>
	<polygon class="st1" points="2797.7,446.6 2794.8,545.3 2728.9,570 2731.8,469.1  "/>
	<polygon class="st1" points="2797.7,446.6 2722.7,425.4 2656,446.1 2731.8,469.1  "/>
	<polyline class="st1" points="2656,446.1 2654.2,545.7 2728.9,570  "/>
	<polygon class="st1" points="3026.6,370.6 3021.5,460.8 2966.7,481.3 2971.6,391.2  "/>
	<polygon class="st1" points="3026.6,370.6 2955.3,352.6 2898.6,370.2 2971.6,391.2  "/>
	<polyline class="st1" points="2898.6,370.2 2896,459.9 2966.7,481.3  "/>
	<polygon class="st1" points="3122.4,539 3114.5,645.7 3051.3,674.5 3060.2,565.2  "/>
	<polygon class="st1" points="3122.4,539 3033.9,513.5 2970.7,539.4 3060.2,565.2  "/>
	<polyline class="st1" points="2970.7,539.4 2964.1,645.9 3051.3,674.5  "/>
	<polygon class="st1" points="3088.5,934.1 3081.8,1026.1 3022.7,1062.4 3029.4,969.4  "/>
	<polygon class="st1" points="3088.5,934.1 3006.5,900.8 2945.9,935.5 3029.4,969.4  "/>
	<polyline class="st1" points="2945.9,935.5 2940.8,1027.4 3022.7,1062.4  "/>
	<polygon class="st1" points="2787.1,816.9 2784.5,903.8 2722.2,934.6 2724.8,846.4  "/>
	<polygon class="st1" points="2787.1,816.9 2717.4,788.9 2653.2,817.3 2724.8,846.4  "/>
	<polyline class="st1" points="2653.2,817.3 2653.5,905.8 2722.2,934.6  "/>
	<polygon class="st1" points="2836.6,1082.4 2833.6,1182 2759.8,1227.7 2762.9,1123.8  "/>
	<polygon class="st1" points="2836.6,1082.4 2751.9,1043.4 2677.4,1084.4 2762.9,1123.8  "/>
	<polyline class="st1" points="2677.4,1084.4 2674.5,1184.9 2759.8,1227.7  "/>
	<polygon class="st1" points="2556,919.9 2553,1019.5 2479.2,1065.2 2482.3,961.4  "/>
	<polygon class="st1" points="2556,919.9 2471.3,881 2396.9,921.9 2482.3,961.4  "/>
	<polyline class="st1" points="2396.9,921.9 2393.9,1022.4 2479.2,1065.2  "/>
	<polygon class="st1" points="2821.1,1452 2818.5,1538.7 2750.2,1591.7 2752.9,1501.8  "/>
	<polygon class="st1" points="2821.1,1452 2742.3,1408.2 2673.1,1456.4 2752.9,1501.8  "/>
	<polyline class="st1" points="2673.1,1456.4 2671.6,1543.1 2750.2,1591.7  "/>
	<polygon class="st1" points="3339,447.1 3330.1,544.5 3277.8,568.3 3287.2,469.8  "/>
	<polygon class="st1" points="3339,447.1 3255.1,425.3 3201.2,449.3 3287.2,469.8  "/>
	<polyline class="st1" points="3201.2,449.3 3192.9,545.1 3277.8,568.3  "/>
	<polygon class="st1" points="3316.9,811 3307.4,897.2 3258.9,926.9 3267.1,840.9  "/>
	<polygon class="st1" points="3316.9,811 3238.2,784.4 3188.2,812.7 3267.1,840.9  "/>
	<polyline class="st1" points="3188.2,812.7 3180,898.2 3258.9,926.9  "/>
	<polygon class="st1" points="3705.7,538.6 3687.7,642.2 3641.2,670.3 3659.2,565.6  "/>
	<polygon class="st1" points="3705.7,538.6 3606.2,513.2 3558.8,538.7 3659.2,565.6  "/>
	<polyline class="st1" points="3558.8,538.7 3542.7,642.7 3641.2,670.3  "/>
	<polygon class="st1" points="3511.8,649.1 3494.2,763.7 3437.6,798.7 3452.9,682  "/>
	<polygon class="st1" points="3511.8,649.1 3404.5,619.3 3345.6,651.1 3452.9,682  "/>
	<polyline class="st1" points="3345.6,651.1 3331.8,765 3437.6,798.7  "/>
	<polygon class="st1" points="3656.2,926 3640.2,1016.6 3596,1052.4 3611.1,959  "/>
	<polygon class="st1" points="3656.2,926 3564.8,894.6 3518.8,927.7 3611.1,959  "/>
	<polyline class="st1" points="3518.8,927.7 3504,1018.5 3596,1052.4  "/>
	<polygon class="st1" points="3303.7,1098.8 3295.7,1174.9 3248.8,1209.7 3256.1,1134.1  "/>
	<polygon class="st1" points="3303.7,1098.8 3230.3,1067.5 3182.7,1102 3256.1,1134.1  "/>
	<polyline class="st1" points="3182.7,1102 3175.2,1177.9 3248.8,1209.7  "/>
	<polygon class="st1" points="3059.6,1278.2 3053.4,1359.3 2996.9,1402.3 3002.2,1319  "/>
	<polygon class="st1" points="3059.6,1278.2 2983.3,1241.2 2926.2,1280.6 3002.2,1319  "/>
	<polyline class="st1" points="2926.2,1280.6 2921.3,1363 2996.9,1402.3  "/>
	<line class="st1" x1="2724.2" y1="569.9" x2="2720.1" y2="817.7"/>
	<line class="st1" x1="3120.9" y1="559.4" x2="3239.9" y2="507.4"/>
	<line class="st1" x1="3553.6" y1="572.1" x2="3308.4" y2="507.7"/>
	<line class="st1" x1="3270.1" y1="565.2" x2="3254" y2="811"/>
	<line class="st1" x1="3612" y1="662.7" x2="3587.4" y2="929.8"/>
	<line class="st1" x1="3515.3" y1="949.2" x2="3285.7" y2="868.8"/>
	<line class="st1" x1="3519.6" y1="1521.9" x2="3537.5" y2="1301.6"/>
	<line class="st1" x1="3255.5" y1="926.9" x2="3243.2" y2="1100.8"/>
	<polygon class="st1" points="3291.4,1370.3 3283.5,1446.5 3236.5,1481.2 3244,1405.6  "/>
	<polygon class="st1" points="3291.4,1370.3 3218.1,1339.1 3170.4,1373.6 3244,1405.6  "/>
	<polyline class="st1" points="3170.4,1373.6 3162.9,1449.5 3236.5,1481.2  "/>
	<line class="st1" x1="3240.7" y1="1206" x2="3230.9" y2="1375.4"/>
	<polygon class="st1" points="3619.5,1202.4 3611.6,1278.6 3564.6,1313.3 3572.1,1237.7  "/>
	<polygon class="st1" points="3619.5,1202.4 3546.3,1171.3 3498.6,1205.7 3572.1,1237.7  "/>
	<polyline class="st1" points="3498.6,1205.7 3491.1,1281.6 3564.6,1313.3  "/>
	<path class="st1" d="M3559,1207.5"/>
	<path class="st1" d="M3240.8,920.3"/>
	<path class="st1" d="M3230.9,1375.4"/>
	<path class="st1" d="M3548,1306.1"/>
	<polygon class="st1" points="3580,1519.9 3572.1,1596.2 3525.1,1630.8 3532.5,1555.1  "/>
	<polygon class="st1" points="3580,1519.9 3506.8,1488.8 3459,1523.2 3532.5,1555.1  "/>
	<polyline class="st1" points="3459,1523.2 3451.5,1599 3525.1,1630.8  "/>
	<line class="st1" x1="3260.3" y1="1429.1" x2="3473.9" y2="1512.4"/>
	<polygon class="st0" points="3823.3,1333.2 3815.7,1410.2 3862.7,1375.4 3870.6,1299.3  "/>
	<polygon class="st1" points="3870.6,1299.3 3862.7,1375.5 3815.7,1410.2 3823.1,1334.5  "/>
	<polygon class="st1" points="3870.6,1299.3 3797.4,1268.1 3749.7,1302.6 3823.1,1334.5  "/>
	<polyline class="st1" points="3749.7,1302.6 3742.1,1378.3 3815.7,1410.2  "/>
	<line class="st1" x1="3592.1" y1="1257.9" x2="3748.4" y2="1315.5"/>
	<polygon class="st0" points="3787.4,1026.6 3779.9,1102.4 3852.6,1133.8 3860.9,1058.5  "/>
	<polygon class="st1" points="3908.4,1023.3 3900.5,1099.6 3853.5,1134.2 3860.9,1058.5  "/>
	<polygon class="st1" points="3908.4,1023.3 3835.2,992.2 3787.4,1026.6 3860.9,1058.5  "/>
	<polyline class="st1" points="3787.4,1026.6 3779.9,1102.4 3853.5,1134.2  "/>
	<line class="st1" x1="3626.1" y1="991.4" x2="3786.2" y2="1039.6"/>
	<line class="st1" x1="3036.4" y1="669.6" x2="3017.1" y2="937.5"/>
	<line class="st1" x1="2983.1" y1="998.9" x2="2836.5" y2="1086"/>
	<line class="st1" x1="3510.8" y1="655.9" x2="3601.4" y2="604.6"/>
	<line class="st1" x1="2942.9" y1="953" x2="2754.7" y2="875.7"/>
	<line class="st1" x1="2684.2" y1="1080.7" x2="2513.4" y2="995.8"/>
	<line class="st1" x1="2555.4" y1="940" x2="2687.7" y2="876"/>
	<polygon class="st1" points="2566,719.4 2563.5,806.4 2501.2,837.2 2503.8,749.1  "/>
	<polygon class="st1" points="2566,719.4 2496.4,691.6 2432.2,720 2503.8,749.1  "/>
	<polyline class="st1" points="2432.2,720 2432.5,808.5 2501.2,837.2  "/>
	<line class="st1" x1="2653.2" y1="829.4" x2="2533.7" y2="778.4"/>
	<line class="st1" x1="2654.2" y1="454.8" x2="2534.7" y2="415.3"/>
	<line class="st1" x1="2796.9" y1="472.6" x2="2932.7" y2="425.8"/>
	<polygon class="st0" points="2425.6,350.8 2423.8,450.4 2498.4,474.7 2501.3,373.8  "/>
	<polygon class="st1" points="2567.2,351.3 2564.3,450 2498.4,474.7 2501.3,373.8  "/>
	<polygon class="st1" points="2567.2,351.3 2492.2,330.1 2425.6,350.8 2501.3,373.8  "/>
	<polyline class="st1" points="2425.6,350.8 2423.8,450.4 2498.4,474.7  "/>
	<line class="st1" x1="2814.6" y1="1448.5" x2="2961.6" y2="1341.4"/>
	<line class="st1" x1="2700.2" y1="1437.5" x2="2511.4" y2="1328.5"/>
	<line class="st1" x1="2753.8" y1="1224.7" x2="2747.1" y2="1453.3"/>
	<polygon class="st1" points="2817.5,1669.6 2814.9,1756.3 2746.6,1809.3 2749.2,1719.4  "/>
	<polygon class="st1" points="2817.5,1669.6 2738.7,1625.7 2669.5,1673.9 2749.2,1719.4  "/>
	<polyline class="st1" points="2669.5,1673.9 2668.1,1760.6 2746.6,1809.3  "/>
	<polygon class="st1" points="3056,1495.6 3049.8,1576.8 2993.2,1619.8 2998.7,1536.7  "/>
	<polygon class="st1" points="3056,1495.6 2979.6,1458.7 2922.5,1498.3 2998.7,1536.7  "/>
	<polyline class="st1" points="2922.5,1498.3 2917.6,1580.5 2993.2,1619.8  "/>
	<line class="st1" x1="2811.1" y1="1666" x2="2957.9" y2="1559"/>
	<line class="st1" x1="2745.9" y1="1589" x2="2743.5" y2="1670.8"/>
	<polygon class="st0" points="2140.2,1834 2136.1,1924.6 2204.4,1871.6 2207,1785  "/>
	<polygon class="st0" points="2400.6,1669.5 2395.2,1752.6 2451.8,1709.6 2458,1628.4  "/>
	<polygon class="st1" points="2207,1785 2204.4,1871.6 2136.1,1924.6 2138.7,1834.7  "/>
	<polygon class="st1" points="2207,1785 2128.2,1741.1 2059,1789.3 2138.7,1834.7  "/>
	<polyline class="st1" points="2059,1789.3 2057.6,1876 2136.1,1924.6  "/>
	<polygon class="st1" points="2458,1628.4 2451.8,1709.6 2395.2,1752.6 2400.6,1669.5  "/>
	<polygon class="st1" points="2458,1628.4 2381.6,1591.5 2324.5,1631.1 2400.6,1669.5  "/>
	<polyline class="st1" points="2324.5,1631.1 2319.6,1713.4 2395.2,1752.6  "/>
	<line class="st1" x1="2207" y1="1792.3" x2="2359.9" y2="1691.8"/>
	<line class="st1" x1="2135.4" y1="1584.7" x2="2133" y2="1786.2"/>
	<polygon class="st1" points="2543.2,1267.1 2540.8,1348 2472.6,1397.4 2475.1,1313.5  "/>
	<polygon class="st1" points="2543.2,1267.1 2464.3,1225.9 2395.2,1270.8 2475.1,1313.5  "/>
	<polyline class="st1" points="2395.2,1270.8 2394,1351.9 2472.6,1397.4  "/>
	<line class="st1" x1="2469.2" y1="1269.6" x2="2475.3" y2="1063.2"/>
	<line class="st1" x1="2137.4" y1="1089.5" x2="2137.4" y2="773.7"/>
	<line class="st1" x1="2137.4" y1="1451.9" x2="2137.4" y2="1214.1"/>
	<line class="st1" x1="2428" y1="1330" x2="2205.6" y2="1461.7"/>
	<polygon class="st0" points="2058.8,1459.2 2056.6,1538.3 2135,1584.7 2137.5,1500.8  "/>
	<polygon class="st1" points="2205.6,1454.4 2203.2,1535.3 2135,1584.7 2137.5,1500.8  "/>
	<polygon class="st1" points="2205.6,1454.4 2130.7,1410.9 2057.6,1458.1 2137.5,1500.8  "/>
	<polyline class="st1" points="2057.6,1458.1 2056.4,1539.2 2135,1584.7  "/>
	<line class="st1" x1="2436.5" y1="988" x2="2210.8" y2="1092.3"/>
</g>
<line class="st1" x1="1512.9" y1="1563.4" x2="1512.9" y2="1422"/>
<path class="st1" d="M1798.4,1034.6"/>
<path class="st1" d="M1798.4,921.9"/>
<line class="st1" x1="1798.4" y1="1407.7" x2="1798.4" y2="1283"/>
<polygon class="st0" points="1732.4,1671 1793.5,1714.5 1867.4,1679.2 1804.9,1636.5 "/>
<polygon class="st1" points="1731,1671.2 1731,1743.4 1792.5,1789.3 1792.5,1714.4 "/>
<polygon class="st1" points="1731,1671.2 1804.9,1636.5 1867.4,1678.4 1792.5,1714.4 "/>
<polyline class="st1" points="1867.4,1678.4 1866.3,1750.7 1792.5,1789.3 "/>
<line class="st1" x1="1799.2" y1="1672.9" x2="1798.4" y2="1521.4"/>
<polygon class="st0" points="2131,1124.8 2131,1216.9 2210.8,1182 2210.8,1092.3 "/>
<polygon class="st1" points="2064,1086.3 2064,1175.1 2131,1217.9 2131,1125.1 "/>
<polygon class="st1" points="2064,1086.3 2143.2,1053.8 2210.8,1092.3 2131,1125.1 "/>
<polyline class="st1" points="2210.8,1092.3 2210.8,1182 2131,1217.9 "/>
<line class="st1" x1="1147.3" y1="802.6" x2="1320.4" y2="743.8"/>
<line class="st1" x1="1383.6" y1="914.9" x2="1520.9" y2="858.3"/>
<line class="st1" x1="1354.6" y1="694.4" x2="1354.6" y2="490.5"/>
</svg>
